# MagicaVoxel @ Ephtracy

# group
o 

# material
mtllib Road Tile Left.mtl
usemtl palette

# normals
vn -1 0 0
vn 1 0 0
vn 0 0 1
vn 0 0 -1
vn 0 -1 0
vn 0 1 0

# texcoords
vt 0.369141 0.5
vt 0.904297 0.5

# verts
v -1 0 1
v -1 0 0.6
v -1 0 -0.6
v -1 0 -1
v -1 0.1 1
v -1 0.1 0.6
v -1 0.1 -0.6
v -1 0.1 -1
v 1 0 1
v 1 0 -1
v 1 0.1 1
v 1 0.1 -1
v -1 0 1
v -1 0.1 1
v -0.6 0 1
v -0.6 0.1 1
v 0.6 0 1
v 0.6 0.1 1
v 1 0 1
v 1 0.1 1
v -1 0 -1
v -1 0.1 -1
v 1 0 -1
v 1 0.1 -1
v -1 0 1
v -0.6 0 1
v 0.6 0 1
v 1 0 1
v -0.7 0 0.8
v -0.6 0 0.8
v -0.8 0 0.7
v -0.7 0 0.7
v -1 0 0.6
v -0.8 0 0.6
v 0.5 0 0
v 0.6 0 0
v 0.4 0 -0.1
v 0.5 0 -0.1
v 0.3 0 -0.2
v 0.4 0 -0.2
v 0.2 0 -0.3
v 0.3 0 -0.3
v 0.1 0 -0.4
v 0.2 0 -0.4
v 0 0 -0.5
v 0.1 0 -0.5
v -1 0 -0.6
v 0 0 -0.6
v -1 0 -1
v 1 0 -1
v -1 0.1 1
v -0.6 0.1 1
v 0.6 0.1 1
v 1 0.1 1
v -0.7 0.1 0.8
v -0.6 0.1 0.8
v -0.8 0.1 0.7
v -0.7 0.1 0.7
v -1 0.1 0.6
v -0.8 0.1 0.6
v 0.5 0.1 0
v 0.6 0.1 0
v 0.4 0.1 -0.1
v 0.5 0.1 -0.1
v 0.3 0.1 -0.2
v 0.4 0.1 -0.2
v 0.2 0.1 -0.3
v 0.3 0.1 -0.3
v 0.1 0.1 -0.4
v 0.2 0.1 -0.4
v 0 0.1 -0.5
v 0.1 0.1 -0.5
v -1 0.1 -0.6
v 0 0.1 -0.6
v -1 0.1 -1
v 1 0.1 -1

# faces
f 5/2/1 2/2/1 1/2/1
f 6/1/1 3/1/1 2/1/1
f 6/2/1 2/2/1 5/2/1
f 7/2/1 4/2/1 3/2/1
f 7/1/1 3/1/1 6/1/1
f 8/2/1 4/2/1 7/2/1
f 9/2/2 10/2/2 11/2/2
f 11/2/2 10/2/2 12/2/2
f 15/2/3 14/2/3 13/2/3
f 16/2/3 14/2/3 15/2/3
f 17/1/3 16/1/3 15/1/3
f 18/1/3 16/1/3 17/1/3
f 19/2/3 18/2/3 17/2/3
f 20/2/3 18/2/3 19/2/3
f 21/2/4 22/2/4 23/2/4
f 23/2/4 22/2/4 24/2/4
f 29/2/5 26/2/5 25/2/5
f 30/1/5 27/1/5 26/1/5
f 30/2/5 26/2/5 29/2/5
f 31/2/5 29/2/5 25/2/5
f 32/1/5 30/1/5 29/1/5
f 32/2/5 29/2/5 31/2/5
f 33/2/5 31/2/5 25/2/5
f 34/1/5 32/1/5 31/1/5
f 34/2/5 31/2/5 33/2/5
f 35/1/5 27/1/5 30/1/5
f 35/1/5 32/1/5 34/1/5
f 35/1/5 34/1/5 33/1/5
f 35/1/5 30/1/5 32/1/5
f 36/2/5 28/2/5 27/2/5
f 36/1/5 27/1/5 35/1/5
f 37/1/5 35/1/5 33/1/5
f 38/2/5 36/2/5 35/2/5
f 38/1/5 35/1/5 37/1/5
f 39/1/5 37/1/5 33/1/5
f 40/2/5 38/2/5 37/2/5
f 40/1/5 37/1/5 39/1/5
f 41/1/5 39/1/5 33/1/5
f 42/2/5 40/2/5 39/2/5
f 42/1/5 39/1/5 41/1/5
f 43/1/5 41/1/5 33/1/5
f 44/2/5 42/2/5 41/2/5
f 44/1/5 41/1/5 43/1/5
f 45/1/5 43/1/5 33/1/5
f 46/2/5 44/2/5 43/2/5
f 46/1/5 43/1/5 45/1/5
f 47/1/5 45/1/5 33/1/5
f 48/2/5 46/2/5 45/2/5
f 48/1/5 45/1/5 47/1/5
f 49/2/5 48/2/5 47/2/5
f 50/2/5 28/2/5 36/2/5
f 50/2/5 48/2/5 49/2/5
f 50/2/5 36/2/5 38/2/5
f 50/2/5 46/2/5 48/2/5
f 50/2/5 38/2/5 40/2/5
f 50/2/5 44/2/5 46/2/5
f 50/2/5 42/2/5 44/2/5
f 50/2/5 40/2/5 42/2/5
f 51/2/6 52/2/6 55/2/6
f 52/1/6 53/1/6 56/1/6
f 55/2/6 52/2/6 56/2/6
f 51/2/6 55/2/6 57/2/6
f 55/1/6 56/1/6 58/1/6
f 57/2/6 55/2/6 58/2/6
f 51/2/6 57/2/6 59/2/6
f 57/1/6 58/1/6 60/1/6
f 59/2/6 57/2/6 60/2/6
f 56/1/6 53/1/6 61/1/6
f 60/1/6 58/1/6 61/1/6
f 59/1/6 60/1/6 61/1/6
f 58/1/6 56/1/6 61/1/6
f 53/2/6 54/2/6 62/2/6
f 61/1/6 53/1/6 62/1/6
f 59/1/6 61/1/6 63/1/6
f 61/2/6 62/2/6 64/2/6
f 63/1/6 61/1/6 64/1/6
f 59/1/6 63/1/6 65/1/6
f 63/2/6 64/2/6 66/2/6
f 65/1/6 63/1/6 66/1/6
f 59/1/6 65/1/6 67/1/6
f 65/2/6 66/2/6 68/2/6
f 67/1/6 65/1/6 68/1/6
f 59/1/6 67/1/6 69/1/6
f 67/2/6 68/2/6 70/2/6
f 69/1/6 67/1/6 70/1/6
f 59/1/6 69/1/6 71/1/6
f 69/2/6 70/2/6 72/2/6
f 71/1/6 69/1/6 72/1/6
f 59/1/6 71/1/6 73/1/6
f 71/2/6 72/2/6 74/2/6
f 73/1/6 71/1/6 74/1/6
f 73/2/6 74/2/6 75/2/6
f 62/2/6 54/2/6 76/2/6
f 75/2/6 74/2/6 76/2/6
f 64/2/6 62/2/6 76/2/6
f 74/2/6 72/2/6 76/2/6
f 66/2/6 64/2/6 76/2/6
f 72/2/6 70/2/6 76/2/6
f 70/2/6 68/2/6 76/2/6
f 68/2/6 66/2/6 76/2/6
