# MagicaVoxel @ Ephtracy

# group
o 

# material
mtllib Player Truck.mtl
usemtl palette

# normals
vn -1 0 0
vn 1 0 0
vn 0 0 1
vn 0 0 -1
vn 0 -1 0
vn 0 1 0

# texcoords
vt 0.0214844 0.5
vt 0.369141 0.5
vt 0.904297 0.5
vt 0.994141 0.5

# verts
v -0.2 0 0.4
v -0.2 0 0.2
v -0.2 0 -0.1
v -0.2 0 -0.3
v -0.2 0.1 0.5
v -0.2 0.1 0.4
v -0.2 0.1 0.2
v -0.2 0.1 -0.1
v -0.2 0.1 -0.3
v -0.2 0.1 -0.4
v -0.2 0.2 0.4
v -0.2 0.2 0.2
v -0.2 0.2 -0.1
v -0.2 0.2 -0.3
v -0.2 0.3 0.5
v -0.2 0.3 0.3
v -0.2 0.3 -0.4
v -0.2 0.4 0.3
v -0.2 0.4 -0.4
v -0.1 0.2 0.6
v -0.1 0.2 0.5
v -0.1 0.3 0.6
v -0.1 0.3 0.5
v -0.1 0.3 0.3
v -0.1 0.4 0.5
v -0.1 0.4 0.3
v 0.2 0 0.4
v 0.2 0 0.2
v 0.2 0 -0.1
v 0.2 0 -0.3
v 0.2 0.1 0.4
v 0.2 0.1 0.2
v 0.2 0.1 -0.1
v 0.2 0.1 -0.3
v 0.2 0.3 0.2
v 0.2 0.3 -0.4
v 0.2 0.4 0.2
v 0.2 0.4 -0.4
v -0.1 0 0.4
v -0.1 0 0.2
v -0.1 0 -0.1
v -0.1 0 -0.3
v -0.1 0.1 0.4
v -0.1 0.1 0.2
v -0.1 0.1 -0.1
v -0.1 0.1 -0.3
v -0.1 0.3 0.2
v -0.1 0.3 -0.4
v -0.1 0.4 0.2
v -0.1 0.4 -0.4
v 0.2 0.2 0.6
v 0.2 0.2 0.5
v 0.2 0.3 0.6
v 0.2 0.3 0.5
v 0.2 0.3 0.3
v 0.2 0.4 0.5
v 0.2 0.4 0.3
v 0.3 0 0.4
v 0.3 0 0.2
v 0.3 0 -0.1
v 0.3 0 -0.3
v 0.3 0.1 0.5
v 0.3 0.1 0.4
v 0.3 0.1 0.2
v 0.3 0.1 -0.1
v 0.3 0.1 -0.3
v 0.3 0.1 -0.4
v 0.3 0.2 0.4
v 0.3 0.2 0.2
v 0.3 0.2 -0.1
v 0.3 0.2 -0.3
v 0.3 0.3 0.5
v 0.3 0.3 0.3
v 0.3 0.3 -0.4
v 0.3 0.4 0.3
v 0.3 0.4 -0.4
v -0.1 0.2 0.6
v -0.1 0.3 0.6
v 0 0.2 0.6
v 0 0.3 0.6
v 0.1 0.2 0.6
v 0.1 0.3 0.6
v 0.2 0.2 0.6
v 0.2 0.3 0.6
v -0.2 0.1 0.5
v -0.2 0.3 0.5
v -0.1 0.2 0.5
v -0.1 0.3 0.5
v -0.1 0.4 0.5
v 0 0.2 0.5
v 0 0.3 0.5
v 0.1 0.2 0.5
v 0.1 0.3 0.5
v 0.2 0.2 0.5
v 0.2 0.3 0.5
v 0.2 0.4 0.5
v 0.3 0.1 0.5
v 0.3 0.3 0.5
v -0.2 0 0.4
v -0.2 0.1 0.4
v -0.1 0 0.4
v -0.1 0.1 0.4
v 0.2 0 0.4
v 0.2 0.1 0.4
v 0.3 0 0.4
v 0.3 0.1 0.4
v -0.2 0.3 0.3
v -0.2 0.4 0.3
v -0.1 0.3 0.3
v -0.1 0.4 0.3
v 0.2 0.3 0.3
v 0.2 0.4 0.3
v 0.3 0.3 0.3
v 0.3 0.4 0.3
v -0.2 0 -0.1
v -0.2 0.1 -0.1
v -0.1 0 -0.1
v -0.1 0.1 -0.1
v 0.2 0 -0.1
v 0.2 0.1 -0.1
v 0.3 0 -0.1
v 0.3 0.1 -0.1
v -0.2 0 0.2
v -0.2 0.1 0.2
v -0.1 0 0.2
v -0.1 0.1 0.2
v -0.1 0.3 0.2
v -0.1 0.4 0.2
v 0.2 0 0.2
v 0.2 0.1 0.2
v 0.2 0.3 0.2
v 0.2 0.4 0.2
v 0.3 0 0.2
v 0.3 0.1 0.2
v -0.2 0 -0.3
v -0.2 0.1 -0.3
v -0.1 0 -0.3
v -0.1 0.1 -0.3
v 0.2 0 -0.3
v 0.2 0.1 -0.3
v 0.3 0 -0.3
v 0.3 0.1 -0.3
v -0.2 0.1 -0.4
v -0.2 0.3 -0.4
v -0.2 0.4 -0.4
v -0.1 0.3 -0.4
v -0.1 0.4 -0.4
v 0.2 0.3 -0.4
v 0.2 0.4 -0.4
v 0.3 0.1 -0.4
v 0.3 0.3 -0.4
v 0.3 0.4 -0.4
v -0.2 0 0.4
v -0.1 0 0.4
v 0.2 0 0.4
v 0.3 0 0.4
v -0.2 0 0.2
v -0.1 0 0.2
v 0.2 0 0.2
v 0.3 0 0.2
v -0.2 0 -0.1
v -0.1 0 -0.1
v 0.2 0 -0.1
v 0.3 0 -0.1
v -0.2 0 -0.3
v -0.1 0 -0.3
v 0.2 0 -0.3
v 0.3 0 -0.3
v -0.2 0.1 0.5
v 0.3 0.1 0.5
v -0.2 0.1 0.4
v -0.1 0.1 0.4
v 0.2 0.1 0.4
v 0.3 0.1 0.4
v -0.2 0.1 0.2
v -0.1 0.1 0.2
v 0.2 0.1 0.2
v 0.3 0.1 0.2
v -0.2 0.1 -0.1
v -0.1 0.1 -0.1
v 0.2 0.1 -0.1
v 0.3 0.1 -0.1
v -0.2 0.1 -0.3
v -0.1 0.1 -0.3
v 0.2 0.1 -0.3
v 0.3 0.1 -0.3
v -0.2 0.1 -0.4
v 0.3 0.1 -0.4
v -0.1 0.2 0.6
v 0 0.2 0.6
v 0.1 0.2 0.6
v 0.2 0.2 0.6
v -0.1 0.2 0.5
v 0 0.2 0.5
v 0.1 0.2 0.5
v 0.2 0.2 0.5
v -0.1 0.3 0.6
v 0 0.3 0.6
v 0.1 0.3 0.6
v 0.2 0.3 0.6
v -0.2 0.3 0.5
v -0.1 0.3 0.5
v 0 0.3 0.5
v 0.1 0.3 0.5
v 0.2 0.3 0.5
v 0.3 0.3 0.5
v -0.2 0.3 0.3
v -0.1 0.3 0.3
v 0.2 0.3 0.3
v 0.3 0.3 0.3
v -0.1 0.3 0.2
v 0.2 0.3 0.2
v -0.1 0.3 -0.4
v 0.2 0.3 -0.4
v -0.1 0.4 0.5
v 0.2 0.4 0.5
v -0.2 0.4 0.3
v -0.1 0.4 0.3
v 0.2 0.4 0.3
v 0.3 0.4 0.3
v -0.1 0.4 0.2
v 0.2 0.4 0.2
v -0.2 0.4 -0.4
v -0.1 0.4 -0.4
v 0.2 0.4 -0.4
v 0.3 0.4 -0.4

# faces
f 6/4/1 2/4/1 1/4/1
f 7/4/1 2/4/1 6/4/1
f 8/4/1 4/4/1 3/4/1
f 9/4/1 4/4/1 8/4/1
f 11/4/1 7/4/1 6/4/1
f 11/3/1 6/3/1 5/3/1
f 12/3/1 8/3/1 7/3/1
f 12/4/1 7/4/1 11/4/1
f 13/4/1 9/4/1 8/4/1
f 13/3/1 8/3/1 12/3/1
f 14/3/1 10/3/1 9/3/1
f 14/4/1 9/4/1 13/4/1
f 15/3/1 13/3/1 12/3/1
f 15/3/1 12/3/1 11/3/1
f 15/3/1 14/3/1 13/3/1
f 15/3/1 11/3/1 5/3/1
f 16/3/1 14/3/1 15/3/1
f 17/3/1 10/3/1 14/3/1
f 17/3/1 14/3/1 16/3/1
f 18/2/1 17/2/1 16/2/1
f 19/2/1 17/2/1 18/2/1
f 22/3/1 21/3/1 20/3/1
f 23/3/1 21/3/1 22/3/1
f 25/3/1 24/3/1 23/3/1
f 26/3/1 24/3/1 25/3/1
f 31/4/1 28/4/1 27/4/1
f 32/4/1 28/4/1 31/4/1
f 33/4/1 30/4/1 29/4/1
f 34/4/1 30/4/1 33/4/1
f 37/2/1 36/2/1 35/2/1
f 38/2/1 36/2/1 37/2/1
f 39/4/2 40/4/2 43/4/2
f 43/4/2 40/4/2 44/4/2
f 41/4/2 42/4/2 45/4/2
f 45/4/2 42/4/2 46/4/2
f 47/2/2 48/2/2 49/2/2
f 49/2/2 48/2/2 50/2/2
f 51/3/2 52/3/2 53/3/2
f 53/3/2 52/3/2 54/3/2
f 54/3/2 55/3/2 56/3/2
f 56/3/2 55/3/2 57/3/2
f 58/4/2 59/4/2 63/4/2
f 63/4/2 59/4/2 64/4/2
f 60/4/2 61/4/2 65/4/2
f 65/4/2 61/4/2 66/4/2
f 63/4/2 64/4/2 68/4/2
f 62/3/2 63/3/2 68/3/2
f 64/3/2 65/3/2 69/3/2
f 68/4/2 64/4/2 69/4/2
f 65/4/2 66/4/2 70/4/2
f 69/3/2 65/3/2 70/3/2
f 66/3/2 67/3/2 71/3/2
f 70/4/2 66/4/2 71/4/2
f 69/3/2 70/3/2 72/3/2
f 68/3/2 69/3/2 72/3/2
f 70/3/2 71/3/2 72/3/2
f 62/3/2 68/3/2 72/3/2
f 72/3/2 71/3/2 73/3/2
f 71/3/2 67/3/2 74/3/2
f 73/3/2 71/3/2 74/3/2
f 73/2/2 74/2/2 75/2/2
f 75/2/2 74/2/2 76/2/2
f 79/3/3 78/3/3 77/3/3
f 80/3/3 78/3/3 79/3/3
f 81/1/3 80/1/3 79/1/3
f 82/1/3 80/1/3 81/1/3
f 83/3/3 82/3/3 81/3/3
f 84/3/3 82/3/3 83/3/3
f 87/3/3 86/3/3 85/3/3
f 88/3/3 86/3/3 87/3/3
f 90/3/3 87/3/3 85/3/3
f 91/3/3 89/3/3 88/3/3
f 92/3/3 90/3/3 85/3/3
f 93/3/3 89/3/3 91/3/3
f 94/3/3 92/3/3 85/3/3
f 95/3/3 89/3/3 93/3/3
f 96/3/3 89/3/3 95/3/3
f 97/3/3 94/3/3 85/3/3
f 97/3/3 95/3/3 94/3/3
f 98/3/3 95/3/3 97/3/3
f 101/4/3 100/4/3 99/4/3
f 102/4/3 100/4/3 101/4/3
f 105/4/3 104/4/3 103/4/3
f 106/4/3 104/4/3 105/4/3
f 109/2/3 108/2/3 107/2/3
f 110/2/3 108/2/3 109/2/3
f 113/2/3 112/2/3 111/2/3
f 114/2/3 112/2/3 113/2/3
f 117/4/3 116/4/3 115/4/3
f 118/4/3 116/4/3 117/4/3
f 121/4/3 120/4/3 119/4/3
f 122/4/3 120/4/3 121/4/3
f 123/4/4 124/4/4 125/4/4
f 125/4/4 124/4/4 126/4/4
f 127/2/4 128/2/4 131/2/4
f 131/2/4 128/2/4 132/2/4
f 129/4/4 130/4/4 133/4/4
f 133/4/4 130/4/4 134/4/4
f 135/4/4 136/4/4 137/4/4
f 137/4/4 136/4/4 138/4/4
f 139/4/4 140/4/4 141/4/4
f 141/4/4 140/4/4 142/4/4
f 143/3/4 144/3/4 146/3/4
f 144/2/4 145/2/4 146/2/4
f 146/2/4 145/2/4 147/2/4
f 143/3/4 146/3/4 148/3/4
f 143/3/4 148/3/4 150/3/4
f 148/2/4 149/2/4 151/2/4
f 150/3/4 148/3/4 151/3/4
f 151/2/4 149/2/4 152/2/4
f 157/4/5 154/4/5 153/4/5
f 158/4/5 154/4/5 157/4/5
f 159/4/5 156/4/5 155/4/5
f 160/4/5 156/4/5 159/4/5
f 165/4/5 162/4/5 161/4/5
f 166/4/5 162/4/5 165/4/5
f 167/4/5 164/4/5 163/4/5
f 168/4/5 164/4/5 167/4/5
f 171/3/5 170/3/5 169/3/5
f 172/3/5 170/3/5 171/3/5
f 173/3/5 170/3/5 172/3/5
f 174/3/5 170/3/5 173/3/5
f 176/3/5 173/3/5 172/3/5
f 177/3/5 173/3/5 176/3/5
f 179/3/5 176/3/5 175/3/5
f 179/3/5 178/3/5 177/3/5
f 179/3/5 177/3/5 176/3/5
f 180/3/5 178/3/5 179/3/5
f 181/3/5 178/3/5 180/3/5
f 182/3/5 178/3/5 181/3/5
f 184/3/5 181/3/5 180/3/5
f 185/3/5 181/3/5 184/3/5
f 187/3/5 184/3/5 183/3/5
f 187/3/5 186/3/5 185/3/5
f 187/3/5 185/3/5 184/3/5
f 188/3/5 186/3/5 187/3/5
f 193/3/5 190/3/5 189/3/5
f 194/1/5 191/1/5 190/1/5
f 194/3/5 190/3/5 193/3/5
f 195/3/5 192/3/5 191/3/5
f 195/1/5 191/1/5 194/1/5
f 196/3/5 192/3/5 195/3/5
f 197/3/6 198/3/6 202/3/6
f 198/1/6 199/1/6 203/1/6
f 202/3/6 198/3/6 203/3/6
f 199/3/6 200/3/6 204/3/6
f 203/1/6 199/1/6 204/1/6
f 204/3/6 200/3/6 205/3/6
f 201/3/6 202/3/6 207/3/6
f 207/3/6 202/3/6 208/3/6
f 205/3/6 206/3/6 209/3/6
f 209/3/6 206/3/6 210/3/6
f 211/3/6 212/3/6 213/3/6
f 213/3/6 212/3/6 214/3/6
f 215/3/6 216/3/6 218/3/6
f 218/3/6 216/3/6 219/3/6
f 217/2/6 218/2/6 221/2/6
f 219/2/6 220/2/6 221/2/6
f 218/2/6 219/2/6 221/2/6
f 221/2/6 220/2/6 222/2/6
f 217/2/6 221/2/6 223/2/6
f 223/2/6 221/2/6 224/2/6
f 222/2/6 220/2/6 225/2/6
f 225/2/6 220/2/6 226/2/6
