# MagicaVoxel @ Ephtracy

# group
o 

# material
mtllib Car.mtl
usemtl palette

# normals
vn -1 0 0
vn 1 0 0
vn 0 0 1
vn 0 0 -1
vn 0 -1 0
vn 0 1 0

# texcoords
vt 0.0214844 0.5
vt 0.369141 0.5
vt 0.904297 0.5
vt 0.982422 0.5
vt 0.994141 0.5

# verts
v 0.2 0 0.4
v 0.2 0 0.2
v 0.2 0 -0.2
v 0.2 0 -0.4
v 0.2 0.2 0.4
v 0.2 0.2 0.2
v 0.2 0.2 -0.2
v 0.2 0.2 -0.4
v 0.3 0 0.5
v 0.3 0 0.4
v 0.3 0 0.2
v 0.3 0 -0.2
v 0.3 0 -0.4
v 0.3 0 -0.5
v 0.3 0.1 0.5
v 0.3 0.1 0.4
v 0.3 0.2 0.4
v 0.3 0.2 0.2
v 0.3 0.2 -0.2
v 0.3 0.2 -0.4
v 0.3 0.2 -0.5
v 0.3 0.3 0.5
v 0.3 0.3 0.4
v 0.3 0.3 0.3
v 0.3 0.3 -0.1
v 0.3 0.4 0.5
v 0.3 0.4 0.4
v 0.3 0.4 0.3
v 0.3 0.4 -0.1
v 0.3 0.4 -0.2
v 0.3 0.4 -0.4
v 0.3 0.5 0.5
v 0.3 0.5 -0.2
v 0.3 0.5 -0.4
v 0.4 0.3 0.3
v 0.4 0.3 -0.1
v 0.4 0.4 0.3
v 0.4 0.4 -0.1
v 0.4 0.5 0.3
v 0.4 0.5 -0.1
v 0.4 0.6 0.3
v 0.4 0.6 -0.1
v 0.7 0.3 0.3
v 0.7 0.3 -0.1
v 0.7 0.4 0.3
v 0.7 0.5 0.3
v 0.7 0.5 -0.1
v 0.8 0.4 0.5
v 0.8 0.4 0.4
v 0.8 0.4 0.3
v 0.8 0.5 0.5
v 0.8 0.5 0.3
v 0.4 0.4 0.5
v 0.4 0.4 0.4
v 0.4 0.4 0.3
v 0.4 0.5 0.5
v 0.4 0.5 0.3
v 0.5 0.3 0.3
v 0.5 0.3 0
v 0.5 0.4 0.3
v 0.5 0.5 0.3
v 0.5 0.5 0
v 0.6 0.3 0
v 0.6 0.3 -0.1
v 0.6 0.5 0
v 0.6 0.5 -0.1
v 0.8 0.3 0.3
v 0.8 0.3 -0.1
v 0.8 0.4 0.3
v 0.8 0.4 -0.1
v 0.8 0.5 0.3
v 0.8 0.5 -0.1
v 0.8 0.6 0.3
v 0.8 0.6 -0.1
v 0.9 0 0.5
v 0.9 0 0.4
v 0.9 0 0.2
v 0.9 0 -0.2
v 0.9 0 -0.4
v 0.9 0 -0.5
v 0.9 0.1 0.5
v 0.9 0.1 0.4
v 0.9 0.2 0.4
v 0.9 0.2 0.2
v 0.9 0.2 -0.2
v 0.9 0.2 -0.4
v 0.9 0.2 -0.5
v 0.9 0.3 0.5
v 0.9 0.3 0.4
v 0.9 0.3 0.3
v 0.9 0.3 -0.1
v 0.9 0.4 0.5
v 0.9 0.4 0.4
v 0.9 0.4 0.3
v 0.9 0.4 -0.1
v 0.9 0.4 -0.2
v 0.9 0.4 -0.4
v 0.9 0.5 0.5
v 0.9 0.5 -0.2
v 0.9 0.5 -0.4
v 1 0 0.4
v 1 0 0.2
v 1 0 -0.2
v 1 0 -0.4
v 1 0.2 0.4
v 1 0.2 0.2
v 1 0.2 -0.2
v 1 0.2 -0.4
v 0.3 0 0.5
v 0.3 0.1 0.5
v 0.3 0.3 0.5
v 0.3 0.4 0.5
v 0.3 0.5 0.5
v 0.4 0.4 0.5
v 0.4 0.5 0.5
v 0.5 0.1 0.5
v 0.5 0.3 0.5
v 0.7 0.1 0.5
v 0.7 0.3 0.5
v 0.8 0.4 0.5
v 0.8 0.5 0.5
v 0.9 0 0.5
v 0.9 0.1 0.5
v 0.9 0.3 0.5
v 0.9 0.4 0.5
v 0.9 0.5 0.5
v 0.2 0 0.4
v 0.2 0.2 0.4
v 0.3 0 0.4
v 0.3 0.1 0.4
v 0.3 0.2 0.4
v 0.3 0.3 0.4
v 0.3 0.4 0.4
v 0.4 0.4 0.4
v 0.5 0.3 0.4
v 0.7 0.3 0.4
v 0.8 0.4 0.4
v 0.9 0 0.4
v 0.9 0.1 0.4
v 0.9 0.2 0.4
v 0.9 0.3 0.4
v 0.9 0.4 0.4
v 1 0 0.4
v 1 0.2 0.4
v 0.4 0.4 0.3
v 0.4 0.5 0.3
v 0.4 0.6 0.3
v 0.5 0.4 0.3
v 0.5 0.5 0.3
v 0.7 0.4 0.3
v 0.7 0.5 0.3
v 0.8 0.4 0.3
v 0.8 0.5 0.3
v 0.8 0.6 0.3
v 0.5 0.3 0
v 0.5 0.5 0
v 0.6 0.3 0
v 0.6 0.5 0
v 0.3 0.3 -0.1
v 0.3 0.4 -0.1
v 0.4 0.3 -0.1
v 0.4 0.4 -0.1
v 0.6 0.3 -0.1
v 0.6 0.5 -0.1
v 0.7 0.3 -0.1
v 0.7 0.5 -0.1
v 0.8 0.3 -0.1
v 0.8 0.4 -0.1
v 0.9 0.3 -0.1
v 0.9 0.4 -0.1
v 0.2 0 -0.2
v 0.2 0.2 -0.2
v 0.3 0 -0.2
v 0.3 0.2 -0.2
v 0.9 0 -0.2
v 0.9 0.2 -0.2
v 1 0 -0.2
v 1 0.2 -0.2
v 0.3 0.3 0.3
v 0.3 0.4 0.3
v 0.4 0.3 0.3
v 0.4 0.4 0.3
v 0.5 0.3 0.3
v 0.5 0.4 0.3
v 0.7 0.3 0.3
v 0.7 0.4 0.3
v 0.8 0.3 0.3
v 0.8 0.4 0.3
v 0.9 0.3 0.3
v 0.9 0.4 0.3
v 0.2 0 0.2
v 0.2 0.2 0.2
v 0.3 0 0.2
v 0.3 0.2 0.2
v 0.9 0 0.2
v 0.9 0.2 0.2
v 1 0 0.2
v 1 0.2 0.2
v 0.4 0.5 -0.1
v 0.4 0.6 -0.1
v 0.8 0.5 -0.1
v 0.8 0.6 -0.1
v 0.2 0 -0.4
v 0.2 0.2 -0.4
v 0.3 0 -0.4
v 0.3 0.2 -0.4
v 0.3 0.4 -0.4
v 0.3 0.5 -0.4
v 0.9 0 -0.4
v 0.9 0.2 -0.4
v 0.9 0.4 -0.4
v 0.9 0.5 -0.4
v 1 0 -0.4
v 1 0.2 -0.4
v 0.3 0 -0.5
v 0.3 0.2 -0.5
v 0.9 0 -0.5
v 0.9 0.2 -0.5
v 0.3 0 0.5
v 0.9 0 0.5
v 0.2 0 0.4
v 0.3 0 0.4
v 0.9 0 0.4
v 1 0 0.4
v 0.2 0 0.2
v 0.3 0 0.2
v 0.9 0 0.2
v 1 0 0.2
v 0.2 0 -0.2
v 0.3 0 -0.2
v 0.9 0 -0.2
v 1 0 -0.2
v 0.2 0 -0.4
v 0.3 0 -0.4
v 0.9 0 -0.4
v 1 0 -0.4
v 0.3 0 -0.5
v 0.9 0 -0.5
v 0.3 0.4 0.5
v 0.4 0.4 0.5
v 0.8 0.4 0.5
v 0.9 0.4 0.5
v 0.3 0.4 0.4
v 0.4 0.4 0.4
v 0.8 0.4 0.4
v 0.9 0.4 0.4
v 0.3 0.4 0.3
v 0.4 0.4 0.3
v 0.8 0.4 0.3
v 0.9 0.4 0.3
v 0.3 0.4 -0.1
v 0.4 0.4 -0.1
v 0.8 0.4 -0.1
v 0.9 0.4 -0.1
v 0.5 0.5 0.3
v 0.7 0.5 0.3
v 0.5 0.5 0
v 0.6 0.5 0
v 0.6 0.5 -0.1
v 0.7 0.5 -0.1
v 0.2 0.2 0.4
v 0.3 0.2 0.4
v 0.9 0.2 0.4
v 1 0.2 0.4
v 0.2 0.2 0.2
v 0.3 0.2 0.2
v 0.9 0.2 0.2
v 1 0.2 0.2
v 0.2 0.2 -0.2
v 0.3 0.2 -0.2
v 0.9 0.2 -0.2
v 1 0.2 -0.2
v 0.2 0.2 -0.4
v 0.3 0.2 -0.4
v 0.9 0.2 -0.4
v 1 0.2 -0.4
v 0.3 0.2 -0.5
v 0.9 0.2 -0.5
v 0.3 0.3 0.5
v 0.5 0.3 0.5
v 0.7 0.3 0.5
v 0.9 0.3 0.5
v 0.3 0.3 0.4
v 0.5 0.3 0.4
v 0.7 0.3 0.4
v 0.9 0.3 0.4
v 0.3 0.3 0.3
v 0.4 0.3 0.3
v 0.5 0.3 0.3
v 0.7 0.3 0.3
v 0.8 0.3 0.3
v 0.9 0.3 0.3
v 0.5 0.3 0
v 0.6 0.3 0
v 0.3 0.3 -0.1
v 0.4 0.3 -0.1
v 0.6 0.3 -0.1
v 0.7 0.3 -0.1
v 0.8 0.3 -0.1
v 0.9 0.3 -0.1
v 0.4 0.4 0.4
v 0.8 0.4 0.4
v 0.4 0.4 0.3
v 0.5 0.4 0.3
v 0.7 0.4 0.3
v 0.8 0.4 0.3
v 0.3 0.5 0.5
v 0.4 0.5 0.5
v 0.8 0.5 0.5
v 0.9 0.5 0.5
v 0.4 0.5 0.3
v 0.8 0.5 0.3
v 0.4 0.5 -0.1
v 0.8 0.5 -0.1
v 0.3 0.5 -0.2
v 0.4 0.5 -0.2
v 0.8 0.5 -0.2
v 0.9 0.5 -0.2
v 0.3 0.5 -0.4
v 0.9 0.5 -0.4
v 0.4 0.6 0.3
v 0.8 0.6 0.3
v 0.4 0.6 -0.1
v 0.8 0.6 -0.1

# faces
f 5/5/1 2/5/1 1/5/1
f 6/5/1 2/5/1 5/5/1
f 7/5/1 4/5/1 3/5/1
f 8/5/1 4/5/1 7/5/1
f 15/3/1 10/3/1 9/3/1
f 16/3/1 10/3/1 15/3/1
f 17/1/1 16/1/1 15/1/1
f 18/3/1 12/3/1 11/3/1
f 19/3/1 12/3/1 18/3/1
f 20/3/1 14/3/1 13/3/1
f 21/3/1 14/3/1 20/3/1
f 22/1/1 17/1/1 15/1/1
f 23/3/1 19/3/1 18/3/1
f 23/1/1 17/1/1 22/1/1
f 23/3/1 18/3/1 17/3/1
f 23/3/1 20/3/1 19/3/1
f 24/3/1 20/3/1 23/3/1
f 25/3/1 20/3/1 24/3/1
f 27/3/1 24/3/1 23/3/1
f 28/3/1 24/3/1 27/3/1
f 29/3/1 20/3/1 25/3/1
f 30/3/1 20/3/1 29/3/1
f 31/3/1 20/3/1 30/3/1
f 32/4/1 28/4/1 27/4/1
f 32/4/1 27/4/1 26/4/1
f 32/4/1 29/4/1 28/4/1
f 32/4/1 30/4/1 29/4/1
f 33/2/1 31/2/1 30/2/1
f 33/4/1 30/4/1 32/4/1
f 34/2/1 31/2/1 33/2/1
f 37/3/1 36/3/1 35/3/1
f 38/3/1 36/3/1 37/3/1
f 41/3/1 40/3/1 39/3/1
f 42/3/1 40/3/1 41/3/1
f 45/3/1 44/3/1 43/3/1
f 46/3/1 44/3/1 45/3/1
f 47/3/1 44/3/1 46/3/1
f 51/4/1 49/4/1 48/4/1
f 51/4/1 50/4/1 49/4/1
f 52/4/1 50/4/1 51/4/1
f 53/4/2 54/4/2 56/4/2
f 54/4/2 55/4/2 56/4/2
f 56/4/2 55/4/2 57/4/2
f 58/3/2 59/3/2 60/3/2
f 60/3/2 59/3/2 61/3/2
f 61/3/2 59/3/2 62/3/2
f 63/3/2 64/3/2 65/3/2
f 65/3/2 64/3/2 66/3/2
f 67/3/2 68/3/2 69/3/2
f 69/3/2 68/3/2 70/3/2
f 71/3/2 72/3/2 73/3/2
f 73/3/2 72/3/2 74/3/2
f 75/3/2 76/3/2 81/3/2
f 81/3/2 76/3/2 82/3/2
f 81/1/2 82/1/2 83/1/2
f 77/3/2 78/3/2 84/3/2
f 84/3/2 78/3/2 85/3/2
f 79/3/2 80/3/2 86/3/2
f 86/3/2 80/3/2 87/3/2
f 81/1/2 83/1/2 88/1/2
f 84/3/2 85/3/2 89/3/2
f 88/1/2 83/1/2 89/1/2
f 83/3/2 84/3/2 89/3/2
f 85/3/2 86/3/2 89/3/2
f 89/3/2 86/3/2 90/3/2
f 90/3/2 86/3/2 91/3/2
f 89/3/2 90/3/2 93/3/2
f 93/3/2 90/3/2 94/3/2
f 91/3/2 86/3/2 95/3/2
f 95/3/2 86/3/2 96/3/2
f 96/3/2 86/3/2 97/3/2
f 93/4/2 94/4/2 98/4/2
f 92/4/2 93/4/2 98/4/2
f 94/4/2 95/4/2 98/4/2
f 95/4/2 96/4/2 98/4/2
f 96/2/2 97/2/2 99/2/2
f 98/4/2 96/4/2 99/4/2
f 99/2/2 97/2/2 100/2/2
f 101/5/2 102/5/2 105/5/2
f 105/5/2 102/5/2 106/5/2
f 103/5/2 104/5/2 107/5/2
f 107/5/2 104/5/2 108/5/2
f 114/4/3 113/4/3 112/4/3
f 115/4/3 113/4/3 114/4/3
f 116/3/3 110/3/3 109/3/3
f 116/1/3 111/1/3 110/1/3
f 117/1/3 111/1/3 116/1/3
f 118/3/3 116/3/3 109/3/3
f 118/3/3 117/3/3 116/3/3
f 119/3/3 117/3/3 118/3/3
f 122/3/3 118/3/3 109/3/3
f 123/1/3 119/1/3 118/1/3
f 123/3/3 118/3/3 122/3/3
f 124/1/3 119/1/3 123/1/3
f 125/4/3 121/4/3 120/4/3
f 126/4/3 121/4/3 125/4/3
f 129/5/3 128/5/3 127/5/3
f 130/5/3 128/5/3 129/5/3
f 131/5/3 128/5/3 130/5/3
f 134/3/3 133/3/3 132/3/3
f 135/3/3 134/3/3 132/3/3
f 136/3/3 134/3/3 135/3/3
f 137/3/3 134/3/3 136/3/3
f 141/3/3 137/3/3 136/3/3
f 142/3/3 137/3/3 141/3/3
f 143/5/3 140/5/3 139/5/3
f 143/5/3 139/5/3 138/5/3
f 144/5/3 140/5/3 143/5/3
f 148/3/3 146/3/3 145/3/3
f 148/3/3 147/3/3 146/3/3
f 149/3/3 147/3/3 148/3/3
f 151/3/3 147/3/3 149/3/3
f 152/3/3 151/3/3 150/3/3
f 153/3/3 147/3/3 151/3/3
f 153/3/3 151/3/3 152/3/3
f 154/3/3 147/3/3 153/3/3
f 157/3/3 156/3/3 155/3/3
f 158/3/3 156/3/3 157/3/3
f 161/3/3 160/3/3 159/3/3
f 162/3/3 160/3/3 161/3/3
f 165/3/3 164/3/3 163/3/3
f 166/3/3 164/3/3 165/3/3
f 169/3/3 168/3/3 167/3/3
f 170/3/3 168/3/3 169/3/3
f 173/5/3 172/5/3 171/5/3
f 174/5/3 172/5/3 173/5/3
f 177/5/3 176/5/3 175/5/3
f 178/5/3 176/5/3 177/5/3
f 179/3/4 180/3/4 181/3/4
f 181/3/4 180/3/4 182/3/4
f 183/3/4 184/3/4 185/3/4
f 185/3/4 184/3/4 186/3/4
f 187/3/4 188/3/4 189/3/4
f 189/3/4 188/3/4 190/3/4
f 191/5/4 192/5/4 193/5/4
f 193/5/4 192/5/4 194/5/4
f 195/5/4 196/5/4 197/5/4
f 197/5/4 196/5/4 198/5/4
f 199/3/4 200/3/4 201/3/4
f 201/3/4 200/3/4 202/3/4
f 203/5/4 204/5/4 205/5/4
f 205/5/4 204/5/4 206/5/4
f 206/3/4 207/3/4 210/3/4
f 207/2/4 208/2/4 211/2/4
f 210/3/4 207/3/4 211/3/4
f 211/2/4 208/2/4 212/2/4
f 209/5/4 210/5/4 213/5/4
f 213/5/4 210/5/4 214/5/4
f 215/3/4 216/3/4 217/3/4
f 217/3/4 216/3/4 218/3/4
f 222/3/5 220/3/5 219/3/5
f 223/3/5 220/3/5 222/3/5
f 225/5/5 222/5/5 221/5/5
f 226/3/5 223/3/5 222/3/5
f 226/5/5 222/5/5 225/5/5
f 227/5/5 224/5/5 223/5/5
f 227/3/5 223/3/5 226/3/5
f 228/5/5 224/5/5 227/5/5
f 230/3/5 227/3/5 226/3/5
f 231/3/5 227/3/5 230/3/5
f 233/5/5 230/5/5 229/5/5
f 234/3/5 231/3/5 230/3/5
f 234/5/5 230/5/5 233/5/5
f 235/5/5 232/5/5 231/5/5
f 235/3/5 231/3/5 234/3/5
f 236/5/5 232/5/5 235/5/5
f 237/3/5 235/3/5 234/3/5
f 238/3/5 235/3/5 237/3/5
f 243/4/5 240/4/5 239/4/5
f 244/4/5 240/4/5 243/4/5
f 245/4/5 242/4/5 241/4/5
f 246/4/5 242/4/5 245/4/5
f 251/4/5 248/4/5 247/4/5
f 252/4/5 248/4/5 251/4/5
f 253/4/5 250/4/5 249/4/5
f 254/4/5 250/4/5 253/4/5
f 257/3/5 256/3/5 255/3/5
f 258/3/5 256/3/5 257/3/5
f 259/3/5 256/3/5 258/3/5
f 260/3/5 256/3/5 259/3/5
f 261/5/6 262/5/6 265/5/6
f 265/5/6 262/5/6 266/5/6
f 263/5/6 264/5/6 267/5/6
f 267/5/6 264/5/6 268/5/6
f 269/5/6 270/5/6 273/5/6
f 273/5/6 270/5/6 274/5/6
f 271/5/6 272/5/6 275/5/6
f 275/5/6 272/5/6 276/5/6
f 274/3/6 275/3/6 277/3/6
f 277/3/6 275/3/6 278/3/6
f 279/1/6 280/1/6 283/1/6
f 280/3/6 281/3/6 284/3/6
f 283/1/6 280/1/6 284/1/6
f 281/1/6 282/1/6 285/1/6
f 284/3/6 281/3/6 285/3/6
f 285/1/6 282/1/6 286/1/6
f 289/3/6 290/3/6 293/3/6
f 293/3/6 290/3/6 294/3/6
f 287/3/6 288/3/6 295/3/6
f 295/3/6 288/3/6 296/3/6
f 294/3/6 290/3/6 297/3/6
f 297/3/6 290/3/6 298/3/6
f 291/3/6 292/3/6 299/3/6
f 299/3/6 292/3/6 300/3/6
f 301/3/6 302/3/6 303/3/6
f 303/3/6 302/3/6 304/3/6
f 304/3/6 302/3/6 305/3/6
f 305/3/6 302/3/6 306/3/6
f 307/4/6 308/4/6 311/4/6
f 309/4/6 310/4/6 312/4/6
f 307/4/6 311/4/6 313/4/6
f 312/4/6 310/4/6 314/4/6
f 307/4/6 313/4/6 315/4/6
f 313/3/6 314/3/6 316/3/6
f 315/4/6 313/4/6 316/4/6
f 314/4/6 310/4/6 317/4/6
f 316/3/6 314/3/6 317/3/6
f 317/4/6 310/4/6 318/4/6
f 315/2/6 316/2/6 319/2/6
f 316/2/6 317/2/6 319/2/6
f 317/2/6 318/2/6 319/2/6
f 319/2/6 318/2/6 320/2/6
f 321/3/6 322/3/6 323/3/6
f 323/3/6 322/3/6 324/3/6
