# MagicaVoxel @ Ephtracy

# group
o 

# material
mtllib Plane.mtl
usemtl palette

# normals
vn -1 0 0
vn 1 0 0
vn 0 0 1
vn 0 0 -1
vn 0 -1 0
vn 0 1 0

# texcoords
vt 0.369141 0.5
vt 0.755859 0.5
vt 0.904297 0.5
vt 0.982422 0.5

# verts
v -1 1.2 0.3
v -1 1.2 -0.1
v -1 1.4 0.3
v -1 1.4 -0.1
v -0.9 1 0.7
v -0.9 1 -0.1
v -0.9 1 -0.3
v -0.9 1.1 0.7
v -0.9 1.1 -0.1
v -0.9 1.2 -0.1
v -0.9 1.3 -0.1
v -0.9 1.3 -0.3
v -0.6 1 0.7
v -0.6 1 -0.1
v -0.6 1 -0.3
v -0.6 1.1 0.7
v -0.6 1.1 -0.1
v -0.6 1.2 -0.1
v -0.6 1.3 -0.1
v -0.6 1.3 -0.3
v -0.5 1.2 -0.8
v -0.5 1.2 -1
v -0.5 1.3 -0.8
v -0.5 1.3 -1
v -0.3 1 0.8
v -0.3 1 -1
v -0.3 1.1 -0.7
v -0.3 1.1 -1
v -0.3 1.2 0.3
v -0.3 1.2 -0.1
v -0.3 1.2 -0.6
v -0.3 1.2 -0.7
v -0.3 1.3 0.8
v -0.3 1.3 0.7
v -0.3 1.3 -0.5
v -0.3 1.3 -0.6
v -0.3 1.4 0.7
v -0.3 1.4 0.3
v -0.3 1.4 -0.1
v -0.3 1.4 -0.5
v -0.2 1 0.9
v -0.2 1 0.8
v -0.2 1.2 0.9
v -0.2 1.2 0.8
v -0.1 1 1
v -0.1 1 0.9
v -0.1 1.1 -0.8
v -0.1 1.1 -1
v -0.1 1.2 1
v -0.1 1.2 0.9
v -0.1 1.2 0.8
v -0.1 1.2 -0.8
v -0.1 1.2 -1
v -0.1 1.3 1
v -0.1 1.3 0.8
v 0.1 1.1 -0.8
v 0.1 1.1 -1
v 0.1 1.2 -0.8
v 0.1 1.2 -1
v 0.4 1 0.7
v 0.4 1 -0.1
v 0.4 1 -0.3
v 0.4 1.1 0.7
v 0.4 1.1 -0.1
v 0.4 1.2 -0.1
v 0.4 1.3 -0.1
v 0.4 1.3 -0.3
v 0.7 1 0.7
v 0.7 1 -0.1
v 0.7 1 -0.3
v 0.7 1.1 0.7
v 0.7 1.1 -0.1
v 0.7 1.2 -0.1
v 0.7 1.3 -0.1
v 0.7 1.3 -0.3
v -0.7 1 0.7
v -0.7 1 -0.1
v -0.7 1 -0.3
v -0.7 1.1 0.7
v -0.7 1.1 -0.1
v -0.7 1.2 -0.1
v -0.7 1.3 -0.1
v -0.7 1.3 -0.3
v -0.4 1 0.7
v -0.4 1 -0.1
v -0.4 1 -0.3
v -0.4 1.1 0.7
v -0.4 1.1 -0.1
v -0.4 1.2 -0.1
v -0.4 1.3 -0.1
v -0.4 1.3 -0.3
v 0 1.1 -0.8
v 0 1.1 -1
v 0 1.2 -0.8
v 0 1.2 -1
v 0.1 1 1
v 0.1 1 0.9
v 0.1 1.2 1
v 0.1 1.2 0.9
v 0.1 1.2 0.8
v 0.1 1.3 1
v 0.1 1.3 0.8
v 0.2 1 0.9
v 0.2 1 0.8
v 0.2 1.1 -0.8
v 0.2 1.1 -1
v 0.2 1.2 0.9
v 0.2 1.2 0.8
v 0.2 1.2 -0.8
v 0.2 1.2 -1
v 0.3 1 0.8
v 0.3 1 -1
v 0.3 1.1 -0.7
v 0.3 1.1 -1
v 0.3 1.2 0.3
v 0.3 1.2 -0.1
v 0.3 1.2 -0.6
v 0.3 1.2 -0.7
v 0.3 1.3 0.8
v 0.3 1.3 0.7
v 0.3 1.3 -0.5
v 0.3 1.3 -0.6
v 0.3 1.4 0.7
v 0.3 1.4 0.3
v 0.3 1.4 -0.1
v 0.3 1.4 -0.5
v 0.6 1 0.7
v 0.6 1 -0.1
v 0.6 1 -0.3
v 0.6 1.1 0.7
v 0.6 1.1 -0.1
v 0.6 1.2 -0.1
v 0.6 1.2 -0.8
v 0.6 1.2 -1
v 0.6 1.3 -0.1
v 0.6 1.3 -0.3
v 0.6 1.3 -0.8
v 0.6 1.3 -1
v 0.9 1 0.7
v 0.9 1 -0.1
v 0.9 1 -0.3
v 0.9 1.1 0.7
v 0.9 1.1 -0.1
v 0.9 1.2 -0.1
v 0.9 1.3 -0.1
v 0.9 1.3 -0.3
v 1 1.2 0.3
v 1 1.2 -0.1
v 1 1.4 0.3
v 1 1.4 -0.1
v -0.1 1 1
v -0.1 1.2 1
v -0.1 1.3 1
v 0.1 1 1
v 0.1 1.2 1
v 0.1 1.3 1
v -0.2 1 0.9
v -0.2 1.2 0.9
v -0.1 1 0.9
v -0.1 1.2 0.9
v 0.1 1 0.9
v 0.1 1.2 0.9
v 0.2 1 0.9
v 0.2 1.2 0.9
v -0.3 1 0.8
v -0.3 1.3 0.8
v -0.2 1 0.8
v -0.2 1.2 0.8
v -0.1 1.2 0.8
v -0.1 1.3 0.8
v 0.1 1.2 0.8
v 0.1 1.3 0.8
v 0.2 1 0.8
v 0.2 1.2 0.8
v 0.3 1 0.8
v 0.3 1.3 0.8
v -0.9 1 0.7
v -0.9 1.1 0.7
v -0.7 1 0.7
v -0.7 1.1 0.7
v -0.6 1 0.7
v -0.6 1.1 0.7
v -0.4 1 0.7
v -0.4 1.1 0.7
v -0.3 1.3 0.7
v -0.3 1.4 0.7
v 0.3 1.3 0.7
v 0.3 1.4 0.7
v 0.4 1 0.7
v 0.4 1.1 0.7
v 0.6 1 0.7
v 0.6 1.1 0.7
v 0.7 1 0.7
v 0.7 1.1 0.7
v 0.9 1 0.7
v 0.9 1.1 0.7
v -1 1.2 0.3
v -1 1.4 0.3
v -0.3 1.2 0.3
v -0.3 1.4 0.3
v 0.3 1.2 0.3
v 0.3 1.4 0.3
v 1 1.2 0.3
v 1 1.4 0.3
v -0.9 1.1 -0.1
v -0.9 1.2 -0.1
v -0.7 1.1 -0.1
v -0.7 1.2 -0.1
v -0.6 1.1 -0.1
v -0.6 1.2 -0.1
v -0.4 1.1 -0.1
v -0.4 1.2 -0.1
v 0.4 1.1 -0.1
v 0.4 1.2 -0.1
v 0.6 1.1 -0.1
v 0.6 1.2 -0.1
v 0.7 1.1 -0.1
v 0.7 1.2 -0.1
v 0.9 1.1 -0.1
v 0.9 1.2 -0.1
v -0.5 1.2 -0.8
v -0.5 1.3 -0.8
v -0.1 1.1 -0.8
v -0.1 1.2 -0.8
v 0 1.1 -0.8
v 0 1.2 -0.8
v 0.1 1.1 -0.8
v 0.1 1.2 -0.8
v 0.2 1.1 -0.8
v 0.2 1.2 -0.8
v 0.6 1.2 -0.8
v 0.6 1.3 -0.8
v -1 1.2 -0.1
v -1 1.4 -0.1
v -0.9 1.2 -0.1
v -0.9 1.3 -0.1
v -0.7 1.2 -0.1
v -0.7 1.3 -0.1
v -0.6 1.2 -0.1
v -0.6 1.3 -0.1
v -0.4 1.2 -0.1
v -0.4 1.3 -0.1
v -0.3 1.2 -0.1
v -0.3 1.4 -0.1
v 0.3 1.2 -0.1
v 0.3 1.4 -0.1
v 0.4 1.2 -0.1
v 0.4 1.3 -0.1
v 0.6 1.2 -0.1
v 0.6 1.3 -0.1
v 0.7 1.2 -0.1
v 0.7 1.3 -0.1
v 0.9 1.2 -0.1
v 0.9 1.3 -0.1
v 1 1.2 -0.1
v 1 1.4 -0.1
v -0.9 1 -0.3
v -0.9 1.3 -0.3
v -0.7 1 -0.3
v -0.7 1.3 -0.3
v -0.6 1 -0.3
v -0.6 1.3 -0.3
v -0.4 1 -0.3
v -0.4 1.3 -0.3
v 0.4 1 -0.3
v 0.4 1.3 -0.3
v 0.6 1 -0.3
v 0.6 1.3 -0.3
v 0.7 1 -0.3
v 0.7 1.3 -0.3
v 0.9 1 -0.3
v 0.9 1.3 -0.3
v -0.3 1.3 -0.5
v -0.3 1.4 -0.5
v 0.3 1.3 -0.5
v 0.3 1.4 -0.5
v -0.3 1.2 -0.6
v -0.3 1.3 -0.6
v 0.3 1.2 -0.6
v 0.3 1.3 -0.6
v -0.3 1.1 -0.7
v -0.3 1.2 -0.7
v 0.3 1.1 -0.7
v 0.3 1.2 -0.7
v -0.5 1.2 -1
v -0.5 1.3 -1
v -0.3 1 -1
v -0.3 1.1 -1
v -0.1 1.1 -1
v -0.1 1.2 -1
v 0 1.1 -1
v 0 1.2 -1
v 0.1 1.1 -1
v 0.1 1.2 -1
v 0.2 1.1 -1
v 0.2 1.2 -1
v 0.3 1 -1
v 0.3 1.1 -1
v 0.6 1.2 -1
v 0.6 1.3 -1
v -0.1 1 1
v 0.1 1 1
v -0.2 1 0.9
v -0.1 1 0.9
v 0.1 1 0.9
v 0.2 1 0.9
v -0.3 1 0.8
v -0.2 1 0.8
v 0.2 1 0.8
v 0.3 1 0.8
v -0.9 1 0.7
v -0.7 1 0.7
v -0.6 1 0.7
v -0.4 1 0.7
v 0.4 1 0.7
v 0.6 1 0.7
v 0.7 1 0.7
v 0.9 1 0.7
v -0.9 1 -0.1
v -0.7 1 -0.1
v -0.6 1 -0.1
v -0.4 1 -0.1
v 0.4 1 -0.1
v 0.6 1 -0.1
v 0.7 1 -0.1
v 0.9 1 -0.1
v -0.9 1 -0.3
v -0.7 1 -0.3
v -0.6 1 -0.3
v -0.4 1 -0.3
v 0.4 1 -0.3
v 0.6 1 -0.3
v 0.7 1 -0.3
v 0.9 1 -0.3
v -0.3 1 -1
v 0.3 1 -1
v -1 1.2 0.3
v -0.3 1.2 0.3
v 0.3 1.2 0.3
v 1 1.2 0.3
v -1 1.2 -0.1
v -0.9 1.2 -0.1
v -0.7 1.2 -0.1
v -0.6 1.2 -0.1
v -0.4 1.2 -0.1
v -0.3 1.2 -0.1
v 0.3 1.2 -0.1
v 0.4 1.2 -0.1
v 0.6 1.2 -0.1
v 0.7 1.2 -0.1
v 0.9 1.2 -0.1
v 1 1.2 -0.1
v -0.5 1.2 -0.8
v -0.1 1.2 -0.8
v 0 1.2 -0.8
v 0.1 1.2 -0.8
v 0.2 1.2 -0.8
v 0.6 1.2 -0.8
v -0.5 1.2 -1
v -0.1 1.2 -1
v 0 1.2 -1
v 0.1 1.2 -1
v 0.2 1.2 -1
v 0.6 1.2 -1
v -0.9 1.1 0.7
v -0.7 1.1 0.7
v -0.6 1.1 0.7
v -0.4 1.1 0.7
v 0.4 1.1 0.7
v 0.6 1.1 0.7
v 0.7 1.1 0.7
v 0.9 1.1 0.7
v -0.9 1.1 -0.1
v -0.7 1.1 -0.1
v -0.6 1.1 -0.1
v -0.4 1.1 -0.1
v 0.4 1.1 -0.1
v 0.6 1.1 -0.1
v 0.7 1.1 -0.1
v 0.9 1.1 -0.1
v -0.3 1.1 -0.7
v 0.3 1.1 -0.7
v -0.1 1.1 -0.8
v 0 1.1 -0.8
v 0.1 1.1 -0.8
v 0.2 1.1 -0.8
v -0.3 1.1 -1
v -0.1 1.1 -1
v 0 1.1 -1
v 0.1 1.1 -1
v 0.2 1.1 -1
v 0.3 1.1 -1
v -0.2 1.2 0.9
v -0.1 1.2 0.9
v 0.1 1.2 0.9
v 0.2 1.2 0.9
v -0.2 1.2 0.8
v -0.1 1.2 0.8
v 0.1 1.2 0.8
v 0.2 1.2 0.8
v -0.3 1.2 -0.6
v 0.3 1.2 -0.6
v -0.3 1.2 -0.7
v 0.3 1.2 -0.7
v -0.1 1.3 1
v 0.1 1.3 1
v -0.3 1.3 0.8
v -0.1 1.3 0.8
v 0.1 1.3 0.8
v 0.3 1.3 0.8
v -0.3 1.3 0.7
v 0.3 1.3 0.7
v -0.9 1.3 -0.1
v -0.7 1.3 -0.1
v -0.6 1.3 -0.1
v -0.4 1.3 -0.1
v 0.4 1.3 -0.1
v 0.6 1.3 -0.1
v 0.7 1.3 -0.1
v 0.9 1.3 -0.1
v -0.9 1.3 -0.3
v -0.7 1.3 -0.3
v -0.6 1.3 -0.3
v -0.4 1.3 -0.3
v 0.4 1.3 -0.3
v 0.6 1.3 -0.3
v 0.7 1.3 -0.3
v 0.9 1.3 -0.3
v -0.3 1.3 -0.5
v 0.3 1.3 -0.5
v -0.3 1.3 -0.6
v 0.3 1.3 -0.6
v -0.5 1.3 -0.8
v 0.6 1.3 -0.8
v -0.5 1.3 -1
v 0.6 1.3 -1
v -0.3 1.4 0.7
v 0.3 1.4 0.7
v -1 1.4 0.3
v -0.3 1.4 0.3
v 0.3 1.4 0.3
v 1 1.4 0.3
v -1 1.4 -0.1
v -0.3 1.4 -0.1
v 0.3 1.4 -0.1
v 1 1.4 -0.1
v -0.3 1.4 -0.5
v 0.3 1.4 -0.5

# faces
f 3/3/1 2/3/1 1/3/1
f 4/3/1 2/3/1 3/3/1
f 8/4/1 6/4/1 5/4/1
f 9/1/1 7/1/1 6/1/1
f 9/4/1 6/4/1 8/4/1
f 10/1/1 7/1/1 9/1/1
f 11/1/1 7/1/1 10/1/1
f 12/1/1 7/1/1 11/1/1
f 16/4/1 14/4/1 13/4/1
f 17/1/1 15/1/1 14/1/1
f 17/4/1 14/4/1 16/4/1
f 18/1/1 15/1/1 17/1/1
f 19/1/1 15/1/1 18/1/1
f 20/1/1 15/1/1 19/1/1
f 23/3/1 22/3/1 21/3/1
f 24/3/1 22/3/1 23/3/1
f 27/3/1 26/3/1 25/3/1
f 28/3/1 26/3/1 27/3/1
f 29/3/1 27/3/1 25/3/1
f 30/3/1 27/3/1 29/3/1
f 31/3/1 27/3/1 30/3/1
f 32/3/1 27/3/1 31/3/1
f 33/3/1 29/3/1 25/3/1
f 34/3/1 29/3/1 33/3/1
f 35/3/1 31/3/1 30/3/1
f 36/3/1 31/3/1 35/3/1
f 37/3/1 29/3/1 34/3/1
f 38/3/1 29/3/1 37/3/1
f 39/3/1 35/3/1 30/3/1
f 40/3/1 35/3/1 39/3/1
f 43/3/1 42/3/1 41/3/1
f 44/3/1 42/3/1 43/3/1
f 49/3/1 46/3/1 45/3/1
f 50/3/1 46/3/1 49/3/1
f 52/3/1 48/3/1 47/3/1
f 53/3/1 48/3/1 52/3/1
f 54/2/1 51/2/1 50/2/1
f 54/2/1 50/2/1 49/2/1
f 55/2/1 51/2/1 54/2/1
f 58/3/1 57/3/1 56/3/1
f 59/3/1 57/3/1 58/3/1
f 63/4/1 61/4/1 60/4/1
f 64/1/1 62/1/1 61/1/1
f 64/4/1 61/4/1 63/4/1
f 65/1/1 62/1/1 64/1/1
f 66/1/1 62/1/1 65/1/1
f 67/1/1 62/1/1 66/1/1
f 71/4/1 69/4/1 68/4/1
f 72/1/1 70/1/1 69/1/1
f 72/4/1 69/4/1 71/4/1
f 73/1/1 70/1/1 72/1/1
f 74/1/1 70/1/1 73/1/1
f 75/1/1 70/1/1 74/1/1
f 76/4/2 77/4/2 79/4/2
f 77/1/2 78/1/2 80/1/2
f 79/4/2 77/4/2 80/4/2
f 80/1/2 78/1/2 81/1/2
f 81/1/2 78/1/2 82/1/2
f 82/1/2 78/1/2 83/1/2
f 84/4/2 85/4/2 87/4/2
f 85/1/2 86/1/2 88/1/2
f 87/4/2 85/4/2 88/4/2
f 88/1/2 86/1/2 89/1/2
f 89/1/2 86/1/2 90/1/2
f 90/1/2 86/1/2 91/1/2
f 92/3/2 93/3/2 94/3/2
f 94/3/2 93/3/2 95/3/2
f 96/3/2 97/3/2 98/3/2
f 98/3/2 97/3/2 99/3/2
f 98/2/2 99/2/2 101/2/2
f 99/2/2 100/2/2 101/2/2
f 101/2/2 100/2/2 102/2/2
f 103/3/2 104/3/2 107/3/2
f 107/3/2 104/3/2 108/3/2
f 105/3/2 106/3/2 109/3/2
f 109/3/2 106/3/2 110/3/2
f 111/3/2 112/3/2 113/3/2
f 113/3/2 112/3/2 114/3/2
f 111/3/2 113/3/2 115/3/2
f 115/3/2 113/3/2 116/3/2
f 116/3/2 113/3/2 117/3/2
f 117/3/2 113/3/2 118/3/2
f 111/3/2 115/3/2 119/3/2
f 119/3/2 115/3/2 120/3/2
f 116/3/2 117/3/2 121/3/2
f 121/3/2 117/3/2 122/3/2
f 120/3/2 115/3/2 123/3/2
f 123/3/2 115/3/2 124/3/2
f 116/3/2 121/3/2 125/3/2
f 125/3/2 121/3/2 126/3/2
f 127/4/2 128/4/2 130/4/2
f 128/1/2 129/1/2 131/1/2
f 130/4/2 128/4/2 131/4/2
f 131/1/2 129/1/2 132/1/2
f 132/1/2 129/1/2 135/1/2
f 135/1/2 129/1/2 136/1/2
f 133/3/2 134/3/2 137/3/2
f 137/3/2 134/3/2 138/3/2
f 139/4/2 140/4/2 142/4/2
f 140/1/2 141/1/2 143/1/2
f 142/4/2 140/4/2 143/4/2
f 143/1/2 141/1/2 144/1/2
f 144/1/2 141/1/2 145/1/2
f 145/1/2 141/1/2 146/1/2
f 147/3/2 148/3/2 149/3/2
f 149/3/2 148/3/2 150/3/2
f 154/3/3 152/3/3 151/3/3
f 155/2/3 153/2/3 152/2/3
f 155/3/3 152/3/3 154/3/3
f 156/2/3 153/2/3 155/2/3
f 159/3/3 158/3/3 157/3/3
f 160/3/3 158/3/3 159/3/3
f 163/3/3 162/3/3 161/3/3
f 164/3/3 162/3/3 163/3/3
f 167/3/3 166/3/3 165/3/3
f 168/3/3 166/3/3 167/3/3
f 169/3/3 166/3/3 168/3/3
f 170/3/3 166/3/3 169/3/3
f 174/3/3 172/3/3 171/3/3
f 175/3/3 174/3/3 173/3/3
f 176/3/3 172/3/3 174/3/3
f 176/3/3 174/3/3 175/3/3
f 179/4/3 178/4/3 177/4/3
f 180/4/3 178/4/3 179/4/3
f 183/4/3 182/4/3 181/4/3
f 184/4/3 182/4/3 183/4/3
f 187/3/3 186/3/3 185/3/3
f 188/3/3 186/3/3 187/3/3
f 191/4/3 190/4/3 189/4/3
f 192/4/3 190/4/3 191/4/3
f 195/4/3 194/4/3 193/4/3
f 196/4/3 194/4/3 195/4/3
f 199/3/3 198/3/3 197/3/3
f 200/3/3 198/3/3 199/3/3
f 203/3/3 202/3/3 201/3/3
f 204/3/3 202/3/3 203/3/3
f 207/1/3 206/1/3 205/1/3
f 208/1/3 206/1/3 207/1/3
f 211/1/3 210/1/3 209/1/3
f 212/1/3 210/1/3 211/1/3
f 215/1/3 214/1/3 213/1/3
f 216/1/3 214/1/3 215/1/3
f 219/1/3 218/1/3 217/1/3
f 220/1/3 218/1/3 219/1/3
f 224/3/3 222/3/3 221/3/3
f 225/3/3 224/3/3 223/3/3
f 226/3/3 222/3/3 224/3/3
f 226/3/3 224/3/3 225/3/3
f 228/3/3 222/3/3 226/3/3
f 229/3/3 228/3/3 227/3/3
f 230/3/3 222/3/3 228/3/3
f 230/3/3 228/3/3 229/3/3
f 231/3/3 222/3/3 230/3/3
f 232/3/3 222/3/3 231/3/3
f 233/3/4 234/3/4 235/3/4
f 235/3/4 234/3/4 236/3/4
f 236/3/4 234/3/4 238/3/4
f 237/3/4 238/3/4 239/3/4
f 238/3/4 234/3/4 240/3/4
f 239/3/4 238/3/4 240/3/4
f 240/3/4 234/3/4 242/3/4
f 241/3/4 242/3/4 243/3/4
f 242/3/4 234/3/4 244/3/4
f 243/3/4 242/3/4 244/3/4
f 245/3/4 246/3/4 247/3/4
f 247/3/4 246/3/4 248/3/4
f 248/3/4 246/3/4 250/3/4
f 249/3/4 250/3/4 251/3/4
f 250/3/4 246/3/4 252/3/4
f 251/3/4 250/3/4 252/3/4
f 252/3/4 246/3/4 254/3/4
f 253/3/4 254/3/4 255/3/4
f 254/3/4 246/3/4 256/3/4
f 255/3/4 254/3/4 256/3/4
f 257/1/4 258/1/4 259/1/4
f 259/1/4 258/1/4 260/1/4
f 261/1/4 262/1/4 263/1/4
f 263/1/4 262/1/4 264/1/4
f 265/1/4 266/1/4 267/1/4
f 267/1/4 266/1/4 268/1/4
f 269/1/4 270/1/4 271/1/4
f 271/1/4 270/1/4 272/1/4
f 273/3/4 274/3/4 275/3/4
f 275/3/4 274/3/4 276/3/4
f 277/3/4 278/3/4 279/3/4
f 279/3/4 278/3/4 280/3/4
f 281/3/4 282/3/4 283/3/4
f 283/3/4 282/3/4 284/3/4
f 287/3/4 288/3/4 289/3/4
f 285/3/4 286/3/4 290/3/4
f 287/3/4 289/3/4 291/3/4
f 289/3/4 290/3/4 291/3/4
f 290/3/4 286/3/4 292/3/4
f 291/3/4 290/3/4 292/3/4
f 287/3/4 291/3/4 293/3/4
f 292/3/4 286/3/4 294/3/4
f 287/3/4 293/3/4 295/3/4
f 293/3/4 294/3/4 295/3/4
f 294/3/4 286/3/4 296/3/4
f 295/3/4 294/3/4 296/3/4
f 287/3/4 295/3/4 297/3/4
f 297/3/4 295/3/4 298/3/4
f 296/3/4 286/3/4 299/3/4
f 299/3/4 286/3/4 300/3/4
f 304/3/5 302/3/5 301/3/5
f 305/3/5 302/3/5 304/3/5
f 308/3/5 304/3/5 303/3/5
f 308/3/5 306/3/5 305/3/5
f 308/3/5 305/3/5 304/3/5
f 309/3/5 306/3/5 308/3/5
f 319/4/5 312/4/5 311/4/5
f 320/4/5 312/4/5 319/4/5
f 321/4/5 314/4/5 313/4/5
f 322/4/5 314/4/5 321/4/5
f 323/4/5 316/4/5 315/4/5
f 324/4/5 316/4/5 323/4/5
f 325/4/5 318/4/5 317/4/5
f 326/4/5 318/4/5 325/4/5
f 327/1/5 320/1/5 319/1/5
f 328/1/5 320/1/5 327/1/5
f 329/1/5 322/1/5 321/1/5
f 330/1/5 322/1/5 329/1/5
f 331/1/5 324/1/5 323/1/5
f 332/1/5 324/1/5 331/1/5
f 333/1/5 326/1/5 325/1/5
f 334/1/5 326/1/5 333/1/5
f 335/3/5 308/3/5 307/3/5
f 335/3/5 309/3/5 308/3/5
f 335/3/5 310/3/5 309/3/5
f 336/3/5 310/3/5 335/3/5
f 341/3/5 338/3/5 337/3/5
f 342/3/5 338/3/5 341/3/5
f 343/3/5 338/3/5 342/3/5
f 344/3/5 338/3/5 343/3/5
f 345/3/5 338/3/5 344/3/5
f 346/3/5 338/3/5 345/3/5
f 347/3/5 340/3/5 339/3/5
f 348/3/5 340/3/5 347/3/5
f 349/3/5 340/3/5 348/3/5
f 350/3/5 340/3/5 349/3/5
f 351/3/5 340/3/5 350/3/5
f 352/3/5 340/3/5 351/3/5
f 359/3/5 354/3/5 353/3/5
f 360/3/5 354/3/5 359/3/5
f 361/3/5 356/3/5 355/3/5
f 362/3/5 356/3/5 361/3/5
f 363/3/5 358/3/5 357/3/5
f 364/3/5 358/3/5 363/3/5
f 365/4/6 366/4/6 373/4/6
f 373/4/6 366/4/6 374/4/6
f 367/4/6 368/4/6 375/4/6
f 375/4/6 368/4/6 376/4/6
f 369/4/6 370/4/6 377/4/6
f 377/4/6 370/4/6 378/4/6
f 371/4/6 372/4/6 379/4/6
f 379/4/6 372/4/6 380/4/6
f 381/3/6 382/3/6 383/3/6
f 383/3/6 382/3/6 384/3/6
f 384/3/6 382/3/6 385/3/6
f 385/3/6 382/3/6 386/3/6
f 381/3/6 383/3/6 387/3/6
f 387/3/6 383/3/6 388/3/6
f 384/3/6 385/3/6 389/3/6
f 389/3/6 385/3/6 390/3/6
f 386/3/6 382/3/6 391/3/6
f 391/3/6 382/3/6 392/3/6
f 393/3/6 394/3/6 397/3/6
f 397/3/6 394/3/6 398/3/6
f 395/3/6 396/3/6 399/3/6
f 399/3/6 396/3/6 400/3/6
f 401/3/6 402/3/6 403/3/6
f 403/3/6 402/3/6 404/3/6
f 405/2/6 406/2/6 408/2/6
f 408/2/6 406/2/6 409/2/6
f 407/3/6 408/3/6 411/3/6
f 409/3/6 410/3/6 411/3/6
f 408/3/6 409/3/6 411/3/6
f 411/3/6 410/3/6 412/3/6
f 413/1/6 414/1/6 421/1/6
f 421/1/6 414/1/6 422/1/6
f 415/1/6 416/1/6 423/1/6
f 423/1/6 416/1/6 424/1/6
f 417/1/6 418/1/6 425/1/6
f 425/1/6 418/1/6 426/1/6
f 419/1/6 420/1/6 427/1/6
f 427/1/6 420/1/6 428/1/6
f 429/3/6 430/3/6 431/3/6
f 431/3/6 430/3/6 432/3/6
f 433/3/6 434/3/6 435/3/6
f 435/3/6 434/3/6 436/3/6
f 437/3/6 438/3/6 440/3/6
f 440/3/6 438/3/6 441/3/6
f 439/3/6 440/3/6 443/3/6
f 441/3/6 442/3/6 443/3/6
f 440/3/6 441/3/6 443/3/6
f 443/3/6 442/3/6 444/3/6
f 444/3/6 442/3/6 445/3/6
f 445/3/6 442/3/6 446/3/6
f 444/3/6 445/3/6 447/3/6
f 447/3/6 445/3/6 448/3/6
