# MagicaVoxel @ Ephtracy

# group
o 

# material
mtllib Tank.mtl
usemtl palette

# normals
vn -1 0 0
vn 1 0 0
vn 0 0 1
vn 0 0 -1
vn 0 -1 0
vn 0 1 0

# texcoords
vt 0.904297 0.5
vt 0.982422 0.5
vt 0.994141 0.5

# verts
v -1 0 0.6
v -1 0 -0.6
v -1 0.1 0.7
v -1 0.1 0.6
v -1 0.1 0.5
v -1 0.1 -0.5
v -1 0.1 -0.6
v -1 0.1 -0.7
v -1 0.2 0.7
v -1 0.2 0.6
v -1 0.2 0.5
v -1 0.2 -0.5
v -1 0.2 -0.6
v -1 0.2 -0.7
v -1 0.3 0.6
v -1 0.3 -0.6
v -0.8 0.3 0.5
v -0.8 0.3 -0.5
v -0.8 0.4 0.5
v -0.8 0.4 0
v -0.8 0.8 0
v -0.8 0.8 -0.5
v -0.6 0.5 0.6
v -0.6 0.5 0
v -0.6 0.7 0.6
v -0.6 0.7 0
v -0.2 0 0.6
v -0.2 0 -0.6
v -0.2 0.1 0.7
v -0.2 0.1 0.6
v -0.2 0.1 0.5
v -0.2 0.1 -0.5
v -0.2 0.1 -0.6
v -0.2 0.1 -0.7
v -0.2 0.2 0.7
v -0.2 0.2 0.6
v -0.2 0.2 -0.6
v -0.2 0.2 -0.7
v -0.2 0.3 0.6
v -0.2 0.3 0.5
v -0.2 0.3 -0.5
v -0.2 0.3 -0.6
v -0.8 0 0.6
v -0.8 0 -0.6
v -0.8 0.1 0.7
v -0.8 0.1 0.6
v -0.8 0.1 0.5
v -0.8 0.1 -0.5
v -0.8 0.1 -0.6
v -0.8 0.1 -0.7
v -0.8 0.2 0.7
v -0.8 0.2 0.6
v -0.8 0.2 -0.6
v -0.8 0.2 -0.7
v -0.8 0.3 0.6
v -0.8 0.3 0.5
v -0.8 0.3 -0.5
v -0.8 0.3 -0.6
v -0.4 0.5 0.6
v -0.4 0.5 0
v -0.4 0.7 0.6
v -0.4 0.7 0
v -0.2 0.3 0.5
v -0.2 0.3 -0.5
v -0.2 0.4 0.5
v -0.2 0.4 0
v -0.2 0.8 0
v -0.2 0.8 -0.5
v 0 0 0.6
v 0 0 -0.6
v 0 0.1 0.7
v 0 0.1 0.6
v 0 0.1 0.5
v 0 0.1 -0.5
v 0 0.1 -0.6
v 0 0.1 -0.7
v 0 0.2 0.7
v 0 0.2 0.6
v 0 0.2 0.5
v 0 0.2 -0.5
v 0 0.2 -0.6
v 0 0.2 -0.7
v 0 0.3 0.6
v 0 0.3 -0.6
v -1 0.1 0.7
v -1 0.2 0.7
v -0.8 0.1 0.7
v -0.8 0.2 0.7
v -0.2 0.1 0.7
v -0.2 0.2 0.7
v 0 0.1 0.7
v 0 0.2 0.7
v -1 0 0.6
v -1 0.1 0.6
v -1 0.2 0.6
v -1 0.3 0.6
v -0.8 0 0.6
v -0.8 0.1 0.6
v -0.8 0.2 0.6
v -0.8 0.3 0.6
v -0.6 0.5 0.6
v -0.6 0.7 0.6
v -0.4 0.5 0.6
v -0.4 0.7 0.6
v -0.2 0 0.6
v -0.2 0.1 0.6
v -0.2 0.2 0.6
v -0.2 0.3 0.6
v 0 0 0.6
v 0 0.1 0.6
v 0 0.2 0.6
v 0 0.3 0.6
v -0.8 0.1 0.5
v -0.8 0.3 0.5
v -0.8 0.4 0.5
v -0.2 0.1 0.5
v -0.2 0.3 0.5
v -0.2 0.4 0.5
v -0.8 0.4 0
v -0.8 0.8 0
v -0.6 0.5 0
v -0.6 0.7 0
v -0.4 0.5 0
v -0.4 0.7 0
v -0.2 0.4 0
v -0.2 0.8 0
v -0.8 0.1 -0.5
v -0.8 0.3 -0.5
v -0.8 0.8 -0.5
v -0.2 0.1 -0.5
v -0.2 0.3 -0.5
v -0.2 0.8 -0.5
v -1 0 -0.6
v -1 0.1 -0.6
v -1 0.2 -0.6
v -1 0.3 -0.6
v -0.8 0 -0.6
v -0.8 0.1 -0.6
v -0.8 0.2 -0.6
v -0.8 0.3 -0.6
v -0.2 0 -0.6
v -0.2 0.1 -0.6
v -0.2 0.2 -0.6
v -0.2 0.3 -0.6
v 0 0 -0.6
v 0 0.1 -0.6
v 0 0.2 -0.6
v 0 0.3 -0.6
v -1 0.1 -0.7
v -1 0.2 -0.7
v -0.8 0.1 -0.7
v -0.8 0.2 -0.7
v -0.2 0.1 -0.7
v -0.2 0.2 -0.7
v 0 0.1 -0.7
v 0 0.2 -0.7
v -1 0 0.6
v -0.8 0 0.6
v -0.2 0 0.6
v 0 0 0.6
v -1 0 -0.6
v -0.8 0 -0.6
v -0.2 0 -0.6
v 0 0 -0.6
v -1 0.1 0.7
v -0.8 0.1 0.7
v -0.2 0.1 0.7
v 0 0.1 0.7
v -1 0.1 0.6
v -0.8 0.1 0.6
v -0.2 0.1 0.6
v 0 0.1 0.6
v -0.8 0.1 0.5
v -0.2 0.1 0.5
v -0.8 0.1 -0.5
v -0.2 0.1 -0.5
v -1 0.1 -0.6
v -0.8 0.1 -0.6
v -0.2 0.1 -0.6
v 0 0.1 -0.6
v -1 0.1 -0.7
v -0.8 0.1 -0.7
v -0.2 0.1 -0.7
v 0 0.1 -0.7
v -0.6 0.5 0.6
v -0.4 0.5 0.6
v -0.6 0.5 0
v -0.4 0.5 0
v -1 0.2 0.7
v -0.8 0.2 0.7
v -0.2 0.2 0.7
v 0 0.2 0.7
v -1 0.2 0.6
v -0.8 0.2 0.6
v -0.2 0.2 0.6
v 0 0.2 0.6
v -1 0.2 -0.6
v -0.8 0.2 -0.6
v -0.2 0.2 -0.6
v 0 0.2 -0.6
v -1 0.2 -0.7
v -0.8 0.2 -0.7
v -0.2 0.2 -0.7
v 0 0.2 -0.7
v -1 0.3 0.6
v -0.8 0.3 0.6
v -0.2 0.3 0.6
v 0 0.3 0.6
v -0.8 0.3 0.5
v -0.2 0.3 0.5
v -0.8 0.3 -0.5
v -0.2 0.3 -0.5
v -1 0.3 -0.6
v -0.8 0.3 -0.6
v -0.2 0.3 -0.6
v 0 0.3 -0.6
v -0.8 0.4 0.5
v -0.2 0.4 0.5
v -0.8 0.4 0
v -0.2 0.4 0
v -0.6 0.7 0.6
v -0.4 0.7 0.6
v -0.6 0.7 0
v -0.4 0.7 0
v -0.8 0.8 0
v -0.2 0.8 0
v -0.8 0.8 -0.5
v -0.2 0.8 -0.5

# faces
f 4/3/1 2/3/1 1/3/1
f 5/3/1 2/3/1 4/3/1
f 6/3/1 2/3/1 5/3/1
f 7/3/1 2/3/1 6/3/1
f 9/3/1 4/3/1 3/3/1
f 9/3/1 5/3/1 4/3/1
f 10/3/1 5/3/1 9/3/1
f 11/1/1 6/1/1 5/1/1
f 11/3/1 5/3/1 10/3/1
f 12/3/1 8/3/1 7/3/1
f 12/1/1 6/1/1 11/1/1
f 12/3/1 7/3/1 6/3/1
f 13/3/1 8/3/1 12/3/1
f 14/3/1 8/3/1 13/3/1
f 15/3/1 11/3/1 10/3/1
f 15/3/1 13/3/1 12/3/1
f 15/3/1 12/3/1 11/3/1
f 16/3/1 13/3/1 15/3/1
f 19/1/1 18/1/1 17/1/1
f 20/1/1 18/1/1 19/1/1
f 21/1/1 18/1/1 20/1/1
f 22/1/1 18/1/1 21/1/1
f 25/2/1 24/2/1 23/2/1
f 26/2/1 24/2/1 25/2/1
f 30/3/1 28/3/1 27/3/1
f 31/3/1 28/3/1 30/3/1
f 32/3/1 28/3/1 31/3/1
f 33/3/1 28/3/1 32/3/1
f 35/3/1 30/3/1 29/3/1
f 35/3/1 31/3/1 30/3/1
f 36/3/1 31/3/1 35/3/1
f 37/3/1 34/3/1 33/3/1
f 37/3/1 33/3/1 32/3/1
f 38/3/1 34/3/1 37/3/1
f 39/3/1 31/3/1 36/3/1
f 40/3/1 31/3/1 39/3/1
f 41/3/1 37/3/1 32/3/1
f 42/3/1 37/3/1 41/3/1
f 43/3/2 44/3/2 46/3/2
f 46/3/2 44/3/2 47/3/2
f 47/3/2 44/3/2 48/3/2
f 48/3/2 44/3/2 49/3/2
f 45/3/2 46/3/2 51/3/2
f 46/3/2 47/3/2 51/3/2
f 51/3/2 47/3/2 52/3/2
f 49/3/2 50/3/2 53/3/2
f 48/3/2 49/3/2 53/3/2
f 53/3/2 50/3/2 54/3/2
f 52/3/2 47/3/2 55/3/2
f 55/3/2 47/3/2 56/3/2
f 48/3/2 53/3/2 57/3/2
f 57/3/2 53/3/2 58/3/2
f 59/2/2 60/2/2 61/2/2
f 61/2/2 60/2/2 62/2/2
f 63/1/2 64/1/2 65/1/2
f 65/1/2 64/1/2 66/1/2
f 66/1/2 64/1/2 67/1/2
f 67/1/2 64/1/2 68/1/2
f 69/3/2 70/3/2 72/3/2
f 72/3/2 70/3/2 73/3/2
f 73/3/2 70/3/2 74/3/2
f 74/3/2 70/3/2 75/3/2
f 71/3/2 72/3/2 77/3/2
f 72/3/2 73/3/2 77/3/2
f 77/3/2 73/3/2 78/3/2
f 73/1/2 74/1/2 79/1/2
f 78/3/2 73/3/2 79/3/2
f 75/3/2 76/3/2 80/3/2
f 79/1/2 74/1/2 80/1/2
f 74/3/2 75/3/2 80/3/2
f 80/3/2 76/3/2 81/3/2
f 81/3/2 76/3/2 82/3/2
f 78/3/2 79/3/2 83/3/2
f 80/3/2 81/3/2 83/3/2
f 79/3/2 80/3/2 83/3/2
f 83/3/2 81/3/2 84/3/2
f 87/3/3 86/3/3 85/3/3
f 88/3/3 86/3/3 87/3/3
f 91/3/3 90/3/3 89/3/3
f 92/3/3 90/3/3 91/3/3
f 97/3/3 94/3/3 93/3/3
f 98/3/3 94/3/3 97/3/3
f 99/3/3 96/3/3 95/3/3
f 100/3/3 96/3/3 99/3/3
f 103/2/3 102/2/3 101/2/3
f 104/2/3 102/2/3 103/2/3
f 109/3/3 106/3/3 105/3/3
f 110/3/3 106/3/3 109/3/3
f 111/3/3 108/3/3 107/3/3
f 112/3/3 108/3/3 111/3/3
f 116/1/3 114/1/3 113/1/3
f 116/1/3 115/1/3 114/1/3
f 117/1/3 115/1/3 116/1/3
f 118/1/3 115/1/3 117/1/3
f 121/1/3 120/1/3 119/1/3
f 122/1/3 120/1/3 121/1/3
f 123/1/3 121/1/3 119/1/3
f 124/1/3 120/1/3 122/1/3
f 125/1/3 123/1/3 119/1/3
f 125/1/3 124/1/3 123/1/3
f 126/1/3 120/1/3 124/1/3
f 126/1/3 124/1/3 125/1/3
f 127/1/4 128/1/4 130/1/4
f 128/1/4 129/1/4 130/1/4
f 130/1/4 129/1/4 131/1/4
f 131/1/4 129/1/4 132/1/4
f 133/3/4 134/3/4 137/3/4
f 137/3/4 134/3/4 138/3/4
f 135/3/4 136/3/4 139/3/4
f 139/3/4 136/3/4 140/3/4
f 141/3/4 142/3/4 145/3/4
f 145/3/4 142/3/4 146/3/4
f 143/3/4 144/3/4 147/3/4
f 147/3/4 144/3/4 148/3/4
f 149/3/4 150/3/4 151/3/4
f 151/3/4 150/3/4 152/3/4
f 153/3/4 154/3/4 155/3/4
f 155/3/4 154/3/4 156/3/4
f 161/3/5 158/3/5 157/3/5
f 162/3/5 158/3/5 161/3/5
f 163/3/5 160/3/5 159/3/5
f 164/3/5 160/3/5 163/3/5
f 169/3/5 166/3/5 165/3/5
f 170/3/5 166/3/5 169/3/5
f 171/3/5 168/3/5 167/3/5
f 172/3/5 168/3/5 171/3/5
f 175/1/5 174/1/5 173/1/5
f 176/1/5 174/1/5 175/1/5
f 181/3/5 178/3/5 177/3/5
f 182/3/5 178/3/5 181/3/5
f 183/3/5 180/3/5 179/3/5
f 184/3/5 180/3/5 183/3/5
f 187/2/5 186/2/5 185/2/5
f 188/2/5 186/2/5 187/2/5
f 189/3/6 190/3/6 193/3/6
f 193/3/6 190/3/6 194/3/6
f 191/3/6 192/3/6 195/3/6
f 195/3/6 192/3/6 196/3/6
f 197/3/6 198/3/6 201/3/6
f 201/3/6 198/3/6 202/3/6
f 199/3/6 200/3/6 203/3/6
f 203/3/6 200/3/6 204/3/6
f 205/3/6 206/3/6 209/3/6
f 207/3/6 208/3/6 210/3/6
f 205/3/6 209/3/6 211/3/6
f 210/3/6 208/3/6 212/3/6
f 205/3/6 211/3/6 213/3/6
f 213/3/6 211/3/6 214/3/6
f 212/3/6 208/3/6 215/3/6
f 215/3/6 208/3/6 216/3/6
f 217/1/6 218/1/6 219/1/6
f 219/1/6 218/1/6 220/1/6
f 221/2/6 222/2/6 223/2/6
f 223/2/6 222/2/6 224/2/6
f 225/1/6 226/1/6 227/1/6
f 227/1/6 226/1/6 228/1/6
